<svg xmlns="http://www.w3.org/2000/svg" width="977.53" height="170.03" viewBox="0 0 977.53 170.03"><defs><style>.cls-1{fill:#52228f;}</style></defs><g id="Layer_2" data-name="Layer 2"><g id="Lag_1" data-name="Lag 1"><path class="cls-1" d="M228,131.49a62.56,62.56,0,0,1-19.53-2.94,44.16,44.16,0,0,1-15.69-8.83,40.71,40.71,0,0,1-10.52-14.8,52.37,52.37,0,0,1-3.84-20.86q0-11.78,3.84-20.24a39.11,39.11,0,0,1,24.34-21.93A53,53,0,0,1,223,39.3a49.53,49.53,0,0,1,17.2,2.85A41.51,41.51,0,0,1,253.62,50a35,35,0,0,1,8.74,12,36.59,36.59,0,0,1,3.12,15.16q0,6.06-3.39,9.27a16.92,16.92,0,0,1-9.45,4.1l-44,6.6a14.79,14.79,0,0,0,8,8.82,31.33,31.33,0,0,0,13.91,2.95A49.78,49.78,0,0,0,244.35,107,44,44,0,0,0,255,102.61a14.87,14.87,0,0,1,4.81,5,12.77,12.77,0,0,1,2,6.77q0,8-7.49,11.95a39.59,39.59,0,0,1-12.84,4.11A90.7,90.7,0,0,1,228,131.49Zm-5-70.08a17.63,17.63,0,0,0-7.4,1.43,14.92,14.92,0,0,0-5.09,3.65,15.17,15.17,0,0,0-2.94,5,20.76,20.76,0,0,0-1.16,5.62l30.5-5A13.5,13.5,0,0,0,233,65Q229.63,61.41,223,61.41Z"/><path class="cls-1" d="M312.2,39.3a73.06,73.06,0,0,1,17.56,2,39.51,39.51,0,0,1,13.56,6A27,27,0,0,1,352,57.4a32.42,32.42,0,0,1,3,14.53v39.95a11.08,11.08,0,0,1-2.59,7.58,25.74,25.74,0,0,1-6.15,5.08q-11.6,7-32.63,7a74.41,74.41,0,0,1-17-1.78,40.08,40.08,0,0,1-13-5.35,24.55,24.55,0,0,1-8.38-9.09,26.86,26.86,0,0,1-2.95-12.84q0-12.32,7.32-18.91t22.64-8.2l23.36-2.49V71.58a7.63,7.63,0,0,0-4.54-7.4c-3-1.49-7.4-2.23-13.11-2.23a60.73,60.73,0,0,0-13.2,1.42,70.71,70.71,0,0,0-11.59,3.57,12.38,12.38,0,0,1-3.92-4.9,15.53,15.53,0,0,1-1.61-6.87,11.42,11.42,0,0,1,2.23-7.4A17.29,17.29,0,0,1,286.7,43a54.35,54.35,0,0,1,12.21-2.85A107,107,0,0,1,312.2,39.3Zm1.43,70.08a39.42,39.42,0,0,0,6.68-.62,16.21,16.21,0,0,0,5.44-1.7V92.8l-12.84,1.07a19.73,19.73,0,0,0-8.2,2.14,5.76,5.76,0,0,0-3.21,5.35,7.08,7.08,0,0,0,2.76,5.79C306.1,108.64,309.23,109.38,313.63,109.38Z"/><path class="cls-1" d="M439.52,102.78q0,13.56-10.16,21.22t-30,7.67a84,84,0,0,1-13.91-1.07,39.56,39.56,0,0,1-11-3.3,19.51,19.51,0,0,1-7.13-5.61,12.89,12.89,0,0,1-2.59-8,13.68,13.68,0,0,1,1.79-7.22,17.71,17.71,0,0,1,4.28-4.9,71.28,71.28,0,0,0,11.86,5.08,48.6,48.6,0,0,0,15.42,2.23c3.68,0,6.51-.54,8.47-1.61s2.94-2.49,2.94-4.28A4.47,4.47,0,0,0,407.42,99q-2.13-1.42-7.13-2.32l-5.35-1.07q-15.51-3-23.09-9.54t-7.58-18.63a24.6,24.6,0,0,1,10.88-20.87,40.17,40.17,0,0,1,12.39-5.53,60.67,60.67,0,0,1,16-2,74.63,74.63,0,0,1,12.39,1A40.87,40.87,0,0,1,426,43a18.31,18.31,0,0,1,6.78,5.09,11.49,11.49,0,0,1,2.49,7.4,15.21,15.21,0,0,1-1.51,7,15.83,15.83,0,0,1-3.84,4.91,21.87,21.87,0,0,0-4.28-1.88q-2.85-1-6.24-1.78c-2.26-.54-4.55-1-6.86-1.34a42.81,42.81,0,0,0-6.33-.53,24.52,24.52,0,0,0-9.1,1.33q-3.21,1.35-3.21,4.2a3.75,3.75,0,0,0,1.78,3.2q1.78,1.26,6.78,2.32L408,74.25Q425.08,78.18,432.3,85T439.52,102.78Z"/><path class="cls-1" d="M465,106.53q-2-4.45-4.19-10t-4.64-12.66q-2.4-7.12-5-16.32t-5.44-21.13a22.1,22.1,0,0,1,6.69-4.37,22.35,22.35,0,0,1,9.18-1.87A19.05,19.05,0,0,1,472,42.78q4.09,2.58,6.06,9.72l14.09,49h.71Q495,95.46,497,88.34t4-14.71q2-7.57,3.66-15.16t2.94-14.89a29.72,29.72,0,0,1,14.09-3.39,18.5,18.5,0,0,1,10.34,2.68q4.09,2.67,4.1,9.27a59.28,59.28,0,0,1-1.24,11.14c-.84,4.23-1.94,8.71-3.3,13.47s-3,9.66-4.82,14.71-3.77,10-5.79,14.89-4.11,9.48-6.25,13.82-4.22,8.23-6.24,11.68a125.57,125.57,0,0,1-9.27,14.27,50.93,50.93,0,0,1-8.2,8.65,23.77,23.77,0,0,1-7.85,4.28,28.92,28.92,0,0,1-8.2,1.16q-7.5,0-12.13-4.46a18.81,18.81,0,0,1-5.53-11.59q5.72-4.47,11.42-9.9a120,120,0,0,0,10.34-11.15,16.73,16.73,0,0,1-6.51-4.19Q469.12,115.62,465,106.53Z"/><path class="cls-1" d="M590,39.3a51,51,0,0,1,14.35,2.05A35.42,35.42,0,0,1,616.6,47.5a52.77,52.77,0,0,1,12-5.88,49.42,49.42,0,0,1,16.14-2.32,50.44,50.44,0,0,1,13.29,1.78,34.15,34.15,0,0,1,11.59,5.62,27.2,27.2,0,0,1,8.11,10.16,35.58,35.58,0,0,1,3,15.43v56.17a39.88,39.88,0,0,1-5.61,1.07,57,57,0,0,1-7.94.54,41.47,41.47,0,0,1-7-.54,11.89,11.89,0,0,1-5.26-2.14,10.21,10.21,0,0,1-3.3-4.37,18.76,18.76,0,0,1-1.16-7.22V73.18c0-3.57-1-6.15-3-7.76a12.9,12.9,0,0,0-8.21-2.4,14.33,14.33,0,0,0-5.35,1.16,15.39,15.39,0,0,0-4.28,2.4,5.57,5.57,0,0,1,.18,1.34v60.54a48,48,0,0,1-5.79,1.07,55.69,55.69,0,0,1-7.76.54,41.47,41.47,0,0,1-7-.54,11.84,11.84,0,0,1-5.26-2.14,10.21,10.21,0,0,1-3.3-4.37,18.76,18.76,0,0,1-1.16-7.22V73.18c0-3.57-1.1-6.15-3.3-7.76a13.14,13.14,0,0,0-7.94-2.4,14.15,14.15,0,0,0-5.52,1,41.29,41.29,0,0,0-3.93,1.87v62.59a39.79,39.79,0,0,1-5.62,1.07,56.76,56.76,0,0,1-7.93.54,41.6,41.6,0,0,1-7-.54,11.94,11.94,0,0,1-5.26-2.14,10.37,10.37,0,0,1-3.3-4.37,19,19,0,0,1-1.15-7.22V62a12.87,12.87,0,0,1,2-7.67,23.11,23.11,0,0,1,5.61-5.35,51.63,51.63,0,0,1,15.07-7A65.86,65.86,0,0,1,590,39.3Z"/><path class="cls-1" d="M789,85.31a53.63,53.63,0,0,1-3.39,19.7,40,40,0,0,1-9.54,14.54,40.62,40.62,0,0,1-14.71,8.91,56.91,56.91,0,0,1-19.08,3,53.71,53.71,0,0,1-19.08-3.21,41.87,41.87,0,0,1-14.72-9.18A41,41,0,0,1,699,104.57a52,52,0,0,1-3.39-19.26A51.37,51.37,0,0,1,699,66.23a41.07,41.07,0,0,1,9.54-14.54,42,42,0,0,1,14.72-9.18,53.94,53.94,0,0,1,19.08-3.21,52.69,52.69,0,0,1,19.08,3.3,43.15,43.15,0,0,1,14.71,9.27,41.07,41.07,0,0,1,9.54,14.54A50.86,50.86,0,0,1,789,85.31Zm-62.42,0q0,10.88,4.19,16.67a13.6,13.6,0,0,0,11.68,5.8A13.08,13.08,0,0,0,754,101.89q4-5.88,4-16.58t-4.1-16.5a14.51,14.51,0,0,0-23.19,0Q726.63,74.62,726.62,85.31Z"/><path class="cls-1" d="M855.91,126.32a20,20,0,0,1-7.31,3.21,43.55,43.55,0,0,1-10.88,1.25,36.67,36.67,0,0,1-12-1.78,11.76,11.76,0,0,1-7-5.71q-1.6-3-3.83-8.47t-4.73-12.13q-2.51-6.68-5.17-14.35t-5.08-15.16q-2.42-7.49-4.37-14.44t-3.21-12.31a22.1,22.1,0,0,1,6.69-4.37,22.35,22.35,0,0,1,9.18-1.87,18.53,18.53,0,0,1,10.25,2.59q4,2.58,6,9.72l6.95,27.28q2,8,3.75,14.53t2.67,10.08h.89q3.39-13.2,7.14-29.25t6.77-31.56a28.53,28.53,0,0,1,6.87-2.5,32.83,32.83,0,0,1,7.4-.89,19.41,19.41,0,0,1,10.52,2.68q4.28,2.67,4.28,9.27a38,38,0,0,1-1.34,8.29q-1.34,5.45-3.39,12.31t-4.81,14.53q-2.77,7.67-5.62,15t-5.62,13.64Q858.05,122.22,855.91,126.32Z"/><path class="cls-1" d="M940.08,131.49a62.65,62.65,0,0,1-19.53-2.94,44.16,44.16,0,0,1-15.69-8.83,40.71,40.71,0,0,1-10.52-14.8,52.37,52.37,0,0,1-3.83-20.86q0-11.78,3.83-20.24a39.18,39.18,0,0,1,24.34-21.93,53,53,0,0,1,16.41-2.59,49.59,49.59,0,0,1,17.21,2.85A41.46,41.46,0,0,1,965.67,50a34.84,34.84,0,0,1,8.74,12,36.59,36.59,0,0,1,3.12,15.16q0,6.06-3.39,9.27a16.92,16.92,0,0,1-9.45,4.1l-44.05,6.6a14.82,14.82,0,0,0,8,8.82,31.36,31.36,0,0,0,13.91,2.95A49.72,49.72,0,0,0,956.4,107,43.87,43.87,0,0,0,967,102.61a14.87,14.87,0,0,1,4.81,5,12.78,12.78,0,0,1,2,6.77q0,8-7.5,11.95a39.61,39.61,0,0,1-12.83,4.11A90.93,90.93,0,0,1,940.08,131.49Zm-5-70.08a17.66,17.66,0,0,0-7.4,1.43,15,15,0,0,0-5.09,3.65,15.52,15.52,0,0,0-2.94,5,20.76,20.76,0,0,0-1.16,5.62l30.5-5A13.55,13.55,0,0,0,945.08,65Q941.68,61.41,935.09,61.41Z"/><path class="cls-1" d="M70.19,12.89a18.37,18.37,0,0,1-8,19.77,18.35,18.35,0,0,1-21.22-2c-7.53-6.77-8.42-20.07-.29-26.35C50.89-3.56,66.64-.65,70.19,12.89Z"/><path class="cls-1" d="M102.22,34c3.62-1.43,7.29-3,11.17-3.16s8.13,1.55,9.78,5.07c1.44,3.07.57,6.82-1.34,9.62s-4.7,4.86-7.44,6.85L90.31,70c-7.79,5.66-15.85,11.46-25.22,13.68-10.58,2.5-21.87.12-31.64-4.65S15.2,67.2,7,60C2.46,56-3.74,48.3,2.91,42.81c4.63-3.82,14.3.33,19.6,1,17,2.23,26.21,4.21,43.08,1A262.38,262.38,0,0,0,102.22,34Z"/><path class="cls-1" d="M30,123.47c5.28-16.37,20.53-28.84,37.51-31.63s35,3.82,46.83,16.31c2.76,2.92,5.34,6.49,5.22,10.5-.19,6.06-6.68,10.32-12.74,10.43s-11.73-2.7-17.25-5.18-11.6-4.75-17.52-3.47c-6.85,1.49-12,7.53-14.4,14.1s-2.71,13.71-3.2,20.7C54,160.49,52.53,170,45.33,170c-4.82,0-9.1-7.41-11.25-11.06A44.19,44.19,0,0,1,30,123.47Z"/></g></g></svg>