<?xml version="1.0" encoding="UTF-8"?>
<svg width="176px" height="61px" viewBox="0 0 176 61" version="1.1" xmlns="http://www.w3.org/2000/svg" xmlns:xlink="http://www.w3.org/1999/xlink">
    <title>Group 45</title>
    <defs>
        <polygon id="path-1" points="0 0.420410811 29.2163027 0.420410811 29.2163027 45.4699243 0 45.4699243"></polygon>
        <polygon id="path-3" points="0.154032432 0.231351351 8.76678919 0.231351351 8.76678919 8.62088649 0.154032432 8.62088649"></polygon>
    </defs>
    <g id="Symbols" stroke="none" stroke-width="1" fill="none" fill-rule="evenodd">
        <g id="Header" transform="translate(-132.000000, -30.000000)">
            <g id="Group-45" transform="translate(132.000000, 30.000000)">
                <g id="Group-20" transform="translate(0.000000, 4.525405)">
                    <path d="M29.2162162,51.3435243 C28.0313514,51.5117405 26.8214054,51.6003892 25.5902703,51.6003892 C19.2469189,51.6003892 13.4441081,49.2916324 8.97275676,45.4697946 C13.6555676,51.4832 20.9628108,55.3513081 29.1742703,55.3513081 C37.2888649,55.3513081 44.5208649,51.5735784 49.2088649,45.6816865 C44.7725405,49.3768216 39.067027,51.6003892 32.8421622,51.6003892 C31.611027,51.6003892 30.4006486,51.5117405 29.2162162,51.3435243" id="Fill-1" fill="#CCF5F0"></path>
                    <path d="M58.4322162,26.0103351 C58.4322162,11.8771459 46.9749189,0.420281081 32.8421622,0.420281081 C31.611027,0.420281081 30.4006486,0.50892973 29.2162162,0.677145946 C35.9336216,1.62979459 41.8108108,5.19001081 45.7917838,10.3017946 C51.2828108,14.9954162 54.7647568,21.9709838 54.7647568,29.7612541 C54.7647568,35.7794162 52.6860541,41.3119568 49.2088649,45.6816865 C54.8447568,40.9876324 58.4322162,33.918227 58.4322162,26.0103351" id="Fill-3" fill="#CCF5F0"></path>
                    <path d="M45.7916108,10.3017081 C49.1684757,14.6377081 51.1801514,20.0889514 51.1801514,26.0102486 C51.1801514,38.9123027 41.6316108,49.5821405 29.2160432,51.3434378 C30.4009081,51.5116541 31.6108541,51.6003027 32.8419892,51.6003027 C39.0672865,51.6003027 44.7723676,49.3767351 49.2086919,45.6816 C52.6858811,41.3118703 54.7645838,35.7797622 54.7645838,29.7611676 C54.7645838,21.9713297 51.2826378,14.9953297 45.7916108,10.3017081" id="Fill-5" fill="#66DECF"></path>
                    <g id="Group-9">
                        <mask id="mask-2" fill="white">
                            <use xlink:href="#path-1"></use>
                        </mask>
                        <g id="Clip-8"></g>
                        <path d="M12.8076541,10.0900324 C16.7847351,5.09197838 22.5918703,1.61695135 29.2163027,0.677275676 C28.0314378,0.509059459 26.8214919,0.420410811 25.5903568,0.420410811 C11.4571676,0.420410811 -0.00012972973,11.8772757 -0.00012972973,26.0104649 C-0.00012972973,33.8003027 3.48181622,40.7763027 8.97284324,45.4699243 C5.59641081,41.1339243 3.5843027,35.6826811 3.5843027,29.7613838 C3.5843027,21.8534919 7.17219459,14.7840865 12.8076541,10.0900324" id="Fill-7" fill="#CCF5F0" mask="url(#mask-2)"></path>
                    </g>
                    <path d="M29.2162162,51.3435243 C16.8006486,49.582227 7.25210811,38.9123892 7.25210811,26.0103351 C7.25210811,19.992173 9.33081081,14.4596324 12.8075676,10.0899027 C7.17210811,14.7839568 3.58464865,21.8533622 3.58464865,29.7612541 C3.58464865,35.6825514 5.59632432,41.1337946 8.97275676,45.4697946 C13.4441081,49.2916324 19.2469189,51.6003892 25.5902703,51.6003892 C26.8214054,51.6003892 28.0313514,51.5117405 29.2162162,51.3435243" id="Fill-10" fill="#66DECF"></path>
                    <path d="M12.8076541,10.0900324 C17.2439784,6.3948973 22.9494919,4.1708973 29.1743568,4.1708973 C35.5177081,4.1708973 41.3205189,6.48008649 45.7914378,10.3019243 C41.8108973,5.19014054 35.9337081,1.62992432 29.2163027,0.677275676 C22.5918703,1.61695135 16.7847351,5.09197838 12.8076541,10.0900324" id="Fill-12" fill="#66DECF"></path>
                    <path d="M12.8076541,10.0900324 C9.33046486,14.4597622 7.25176216,19.9918703 7.25176216,26.0104649 C7.25176216,38.9120865 16.8003027,49.5823568 29.2163027,51.3436541 C41.6318703,49.5823568 51.1804108,38.9120865 51.1804108,26.0104649 C51.1804108,20.0887351 49.1683027,14.6379243 45.7914378,10.3019243 C41.3205189,6.48008649 35.5177081,4.1708973 29.1743568,4.1708973 C22.9494919,4.1708973 17.2439784,6.3948973 12.8076541,10.0900324 M44.9836541,27.8859243 C44.9836541,36.5938162 37.9241946,43.6532757 29.2163027,43.6532757 C20.5079784,43.6532757 13.4485189,36.5938162 13.4485189,27.8859243 C13.4485189,19.1776 20.5079784,12.118573 29.2163027,12.118573 C37.9241946,12.118573 44.9836541,19.1776 44.9836541,27.8859243" id="Fill-14" fill="#00C9AD"></path>
                    <path d="M87.6948757,10.5886703 C85.9993081,8.66996757 83.5452541,7.59883243 80.4654703,7.59883243 C73.6832,7.59883243 68.7746595,12.4628324 68.7746595,19.5132108 C68.7746595,26.5194811 73.6832,31.8297514 80.4654703,31.8297514 C83.5452541,31.8297514 85.9993081,30.6695351 87.6948757,28.6613189 L87.6948757,31.249427 L93.8086054,31.249427 L93.8086054,7.73288649 L87.6948757,7.73288649 L87.6948757,10.5886703 Z M81.4029838,25.9841297 C77.8773622,25.9841297 75.334227,23.2619676 75.334227,19.5132108 C75.334227,15.7648865 77.8773622,12.9981838 81.4029838,12.9981838 C85.0176865,12.9981838 87.4717405,15.6758054 87.4717405,19.5132108 C87.4717405,23.3510486 85.0176865,25.9841297 81.4029838,25.9841297 L81.4029838,25.9841297 Z" id="Fill-16" fill="#000312"></path>
                    <path d="M131.522162,10.5886703 C129.826595,8.66996757 127.372541,7.59883243 124.292757,7.59883243 C117.510486,7.59883243 112.601946,12.4628324 112.601946,19.5132108 C112.601946,26.5194811 117.510486,31.8297514 124.292757,31.8297514 C127.372541,31.8297514 129.826595,30.6695351 131.522162,28.6613189 L131.522162,31.249427 L137.635892,31.249427 L137.635892,7.73288649 L131.522162,7.73288649 L131.522162,10.5886703 Z M125.23027,25.9841297 C121.704649,25.9841297 119.161514,23.2619676 119.161514,19.5132108 C119.161514,15.7648865 121.704649,12.9981838 125.23027,12.9981838 C128.844973,12.9981838 131.299027,15.6758054 131.299027,19.5132108 C131.299027,23.3510486 128.844973,25.9841297 125.23027,25.9841297 L125.23027,25.9841297 Z" id="Fill-18" fill="#000312"></path>
                </g>
                <polygon id="Fill-21" fill="#000312" points="139.946378 35.7751351 146.550919 35.7751351 146.550919 12.2581622 139.946378 12.2581622"></polygon>
                <g id="Group-27" transform="translate(96.000000, 0.201081)">
                    <g id="Group-24" transform="translate(42.810811, 0.000000)">
                        <mask id="mask-4" fill="white">
                            <use xlink:href="#path-3"></use>
                        </mask>
                        <g id="Clip-23"></g>
                        <path d="M4.48268108,8.62088649 C6.89262703,8.62088649 8.76678919,6.88077838 8.76678919,4.42629189 C8.76678919,2.01634595 6.89262703,0.231264865 4.48268108,0.231264865 C2.07273514,0.231264865 0.154032432,2.01634595 0.154032432,4.42629189 C0.154032432,6.88077838 2.07273514,8.62088649 4.48268108,8.62088649" id="Fill-22" fill="#000312" mask="url(#mask-4)"></path>
                    </g>
                    <path d="M15.4656,29.817427 L15.4656,35.5739676 L12.9708973,35.5739676 L12.9263568,35.5739676 C8.07100541,35.5739676 4.13543784,31.6379676 4.13543784,26.7830486 L4.13543784,17.6794811 L0.119005405,17.6794811 L0.119005405,12.0569946 L2.12722162,12.0569946 L4.53673514,12.0569946 L4.53673514,9.51342703 L4.53673514,4.42629189 L10.9626811,4.42629189 L10.9626811,12.0569946 L15.4656,12.0569946 L15.4656,15.4675892 L15.4656,17.6794811 L15.0803027,17.6794811 L10.7399784,17.6794811 L10.7399784,26.0608865 C10.7399784,28.1356973 12.4217081,29.817427 14.4965189,29.817427 L15.4656,29.817427 Z" id="Fill-25" fill="#000312"></path>
                </g>
                <polygon id="Fill-28" fill="#808287" points="73.0690595 44.7012324 72.076627 44.7012324 72.076627 52.6372324 77.1412757 52.6372324 77.1412757 51.7209081 73.0690595 51.7209081"></polygon>
                <polygon id="Fill-29" fill="#808287" points="79.9455135 52.636973 80.9379459 52.636973 80.9379459 44.700973 79.9455135 44.700973"></polygon>
                <polygon id="Fill-30" fill="#808287" points="84.5293405 52.6371459 85.521773 52.6371459 85.521773 49.4168216 88.9172324 49.4168216 88.9172324 48.5329297 85.521773 48.5329297 85.521773 45.6179027 89.5615568 45.6179027 89.5615568 44.7011459 84.5293405 44.7011459"></polygon>
                <polygon id="Fill-31" fill="#808287" points="93.5548973 48.9692541 97.6271135 48.9692541 97.6271135 48.0745514 93.5548973 48.0745514 93.5548973 45.6179027 98.0638703 45.6179027 98.0638703 44.7011459 92.5840865 44.7011459 92.5840865 52.6371459 98.1732757 52.6371459 98.1732757 51.7212541 93.5548973 51.7212541"></polygon>
                <g id="Group-36" transform="translate(105.945946, 44.309189)" fill="#808287">
                    <path d="M3.58339459,3.86136216 C2.32112432,3.69444324 1.2300973,3.55044324 1.2300973,2.49876757 C1.2300973,1.62352432 2.03744865,1.03541622 3.23961081,1.03541622 C4.41669189,1.03541622 5.28761081,1.61963243 5.3580973,2.45509189 L5.36804324,2.57487568 L6.27398919,2.57487568 L6.27139459,2.04860541 C6.05344865,0.912605405 4.79290811,0.119524324 3.20674595,0.119524324 C1.45842162,0.119524324 0.237664865,1.12492973 0.237664865,2.56406486 C0.237664865,4.3564973 1.86274595,4.56925405 3.29669189,4.7564973 C4.5395027,4.91952432 5.61323243,5.06006486 5.60847568,6.09055135 C5.60847568,6.46028108 5.46404324,6.79887568 5.18988108,7.07001081 C4.79074595,7.46655135 4.14512432,7.68968649 3.40523243,7.6844973 C2.18577297,7.66417297 1.27766486,6.99476757 1.1968,6.05725405 L1.18685405,5.9379027 L0.270097297,5.9379027 L0.270097297,6.45076757 L0.273124324,6.47801081 C0.537340541,7.72774054 1.83766486,8.60082162 3.43593514,8.60082162 C4.44782703,8.60082162 5.32696216,8.27736216 5.91074595,7.68968649 C6.36739459,7.22914595 6.6060973,6.6419027 6.6018307,5.99195676 C6.6018307,4.2604973 4.99788108,4.04817297 3.58339459,3.86136216" id="Fill-32"></path>
                    <path d="M13.6627892,0.119524324 C11.2212757,0.119524324 9.44873514,1.90071351 9.44873514,4.35433514 C9.44873514,6.81530811 11.2212757,8.60082162 13.6627892,8.60082162 C15.3696,8.60082162 16.9453838,7.61357838 17.4106811,6.25271351 L17.4176,5.65422703 L16.6085189,5.65422703 L16.582573,5.75109189 C16.2816,6.87152432 15.0621405,7.6844973 13.6844108,7.6844973 C11.7990054,7.6844973 10.4307892,6.28384865 10.4307892,4.35433514 C10.4307892,3.39865946 10.7654919,2.53941622 11.3734919,1.93530811 C11.9607351,1.34979459 12.7875459,1.04492973 13.6822486,1.03541622 C15.0941405,1.05660541 16.3040865,1.90892973 16.5592216,3.06179459 L16.5817081,3.16428108 L17.4176,3.16428108 L17.4176,2.60817297 L17.4106811,2.56665946 C16.9380324,1.14871351 15.3622486,0.119524324 13.6627892,0.119524324" id="Fill-34"></path>
                </g>
                <polygon id="Fill-37" fill="#808287" points="126.615351 52.636973 127.607784 52.636973 127.607784 44.700973 126.615351 44.700973"></polygon>
                <polygon id="Fill-38" fill="#808287" points="132.170205 48.9692541 136.241989 48.9692541 136.241989 48.0745514 132.170205 48.0745514 132.170205 45.6179027 136.679178 45.6179027 136.679178 44.7011459 131.199395 44.7011459 131.199395 52.6371459 136.788151 52.6371459 136.788151 51.7212541 132.170205 51.7212541"></polygon>
                <polygon id="Fill-39" fill="#808287" points="145.738162 51.2173838 141.084324 44.7551135 141.044973 44.7010595 139.97427 44.7010595 139.97427 52.6370595 140.923459 52.6370595 140.923459 46.1207351 145.588108 52.5830054 145.627459 52.6370595 146.698162 52.6370595 146.698162 44.7010595 145.738162 44.7010595"></polygon>
                <path d="M154.163632,44.4287135 C151.722119,44.4287135 149.949578,46.2099027 149.949578,48.6635243 C149.949578,51.1244973 151.722119,52.9100108 154.163632,52.9100108 C155.870011,52.9100108 157.446227,51.9227676 157.911092,50.5619027 L157.918443,49.9634162 L157.109362,49.9634162 L157.082984,50.0602811 C156.782443,51.1807135 155.562984,51.9936865 154.184822,51.9936865 C152.299849,51.9936865 150.931632,50.5930378 150.931632,48.6635243 C150.931632,47.7078486 151.266335,46.8486054 151.874335,46.2444973 C152.457686,45.6637405 153.270659,45.3446054 154.162768,45.3446054 L154.183092,45.3446054 C155.594551,45.3657946 156.804497,46.2181189 157.059632,47.3709838 L157.082119,47.4734703 L157.918443,47.4734703 L157.918443,46.9173622 L157.911524,46.8758486 C157.438876,45.4579027 155.863092,44.4287135 154.163632,44.4287135" id="Fill-40" fill="#808287"></path>
                <polygon id="Fill-42" fill="#808287" points="162.140843 48.9692541 166.213059 48.9692541 166.213059 48.0745514 162.140843 48.0745514 162.140843 45.6179027 166.649816 45.6179027 166.649816 44.7011459 161.170032 44.7011459 161.170032 52.6371459 166.759222 52.6371459 166.759222 51.7212541 162.140843 51.7212541"></polygon>
                <path d="M172.876065,48.1705514 C171.613362,48.0036324 170.522768,47.8596324 170.522768,46.8079568 C170.522768,45.9327135 171.330119,45.3446054 172.532281,45.3446054 C173.709362,45.3446054 174.579849,45.9288216 174.650768,46.7642811 L174.660714,46.8840649 L175.566659,46.8840649 L175.564065,46.3577946 C175.346119,45.2217946 174.085578,44.4287135 172.499416,44.4287135 C170.751092,44.4287135 169.530335,45.4341189 169.530335,46.8732541 C169.530335,48.6656865 171.155416,48.8784432 172.58893,49.0656865 C173.832605,49.2287135 174.90547,49.3692541 174.901146,50.3997405 C174.901146,50.7694703 174.756714,51.1080649 174.482551,51.3792 C174.088173,51.7705514 173.449038,51.9936865 172.726876,51.9936865 L172.697903,51.9936865 C171.478443,51.9733622 170.570335,51.3039568 170.48947,50.3664432 L170.479524,50.2470919 L169.562768,50.2470919 L169.562768,50.7599568 L169.565795,50.7872 C169.830011,52.0369297 171.129903,52.9100108 172.728605,52.9100108 C173.74093,52.9100108 174.619632,52.5865514 175.202984,51.9988757 C175.660065,51.5383351 175.898768,50.9510919 175.894011,50.3011459 C175.894011,48.5696865 174.290551,48.3573622 172.876065,48.1705514" id="Fill-43" fill="#808287"></path>
            </g>
        </g>
    </g>
</svg>